<svg xmlns="http://www.w3.org/2000/svg" xmlns:xlink="http://www.w3.org/1999/xlink" width="1080" zoomAndPan="magnify" viewBox="0 0 810 809.999993" height="1080" preserveAspectRatio="xMidYMid meet" version="1.2"><g id="74e04a7bff"><path style=" stroke:none;fill-rule:evenodd;fill:#000000;fill-opacity:1;" d="M 413.34375 57.925781 C 403.636719 58.667969 390.78125 60.207031 370.949219 63.003906 C 362.273438 64.226562 335.015625 70.984375 326.035156 74.136719 C 301.121094 82.882812 280.515625 94.0625 258.484375 110.777344 C 247.167969 119.367188 225.71875 140.253906 224.921875 143.460938 C 224.5625 144.914062 222.25 148.144531 219.785156 150.640625 C 212.210938 158.316406 200.585938 175.148438 196.445312 184.441406 C 193.535156 190.976562 191.671875 193.804688 189.289062 195.3125 C 186.789062 196.894531 184.535156 200.53125 179.210938 211.570312 C 175.4375 219.390625 170.660156 230.328125 168.597656 235.878906 C 166.53125 241.425781 163.691406 248.6875 162.28125 252.015625 C 160.714844 255.722656 159.78125 259.742188 159.871094 262.378906 C 159.957031 264.960938 159.207031 268.277344 157.996094 270.644531 C 155.402344 275.734375 150.769531 293.929688 147.980469 310.019531 C 146.777344 316.953125 145.066406 326.257812 144.179688 330.695312 C 143.292969 335.136719 142.515625 341.101562 142.453125 343.957031 C 142.375 347.390625 141.726562 349.816406 140.535156 351.132812 C 138.042969 353.886719 136.949219 364.304688 136.132812 393.003906 C 135.605469 411.738281 135.742188 417.515625 136.761719 419.417969 C 137.871094 421.492188 137.820312 422.105469 136.417969 423.503906 C 135.511719 424.410156 134.488281 426.277344 134.144531 427.648438 C 133.039062 432.050781 136.644531 471.445312 138.894531 479.554688 C 140.707031 486.089844 140.808594 487.546875 139.683594 490.957031 C 138.5625 494.367188 138.699219 496.371094 140.765625 506.59375 C 142.066406 513.042969 144.675781 523.992188 146.5625 530.925781 C 148.449219 537.863281 150.679688 546.640625 151.523438 550.4375 C 153.53125 559.46875 161.804688 585.289062 163.59375 588.09375 C 164.816406 590.011719 165.359375 590.148438 167.898438 589.191406 C 174.089844 586.855469 176.722656 590.695312 172.617188 596.078125 C 170.515625 598.832031 170.011719 600.375 170.46875 602.660156 C 171.902344 609.820312 190.433594 644.296875 194.792969 647.914062 C 195.644531 648.621094 197.589844 649.191406 199.113281 649.1875 C 202.757812 649.167969 203.742188 649.839844 202.417969 651.433594 C 201.679688 652.324219 201.65625 653.570312 202.34375 655.371094 C 204.152344 660.132812 214.835938 674.558594 220.53125 679.941406 C 223.601562 682.84375 226.652344 685.792969 227.316406 686.5 C 227.980469 687.203125 232.066406 691.574219 236.398438 696.210938 C 246.527344 707.046875 252.464844 711.167969 274.121094 722.402344 C 303.371094 737.574219 314.507812 741.40625 346.414062 747.273438 C 402.4375 757.574219 449.050781 757.871094 504.925781 748.289062 C 537.582031 742.6875 562.949219 732.949219 579.707031 719.585938 C 582.855469 717.074219 588.386719 713.226562 591.996094 711.035156 C 595.605469 708.847656 600.167969 705.894531 602.140625 704.480469 C 607.28125 700.789062 617.453125 689.585938 620.609375 684.144531 C 622.09375 681.589844 625.644531 677.503906 628.5 675.066406 C 635.980469 668.6875 637.308594 667.160156 640.0625 661.773438 C 641.417969 659.121094 644.105469 654.488281 646.027344 651.484375 C 647.953125 648.476562 649.527344 644.945312 649.527344 643.636719 C 649.527344 642.160156 650.679688 640.40625 652.566406 639.011719 C 654.5 637.582031 657.617188 632.753906 661.144531 625.726562 C 664.191406 619.652344 666.6875 614.234375 666.6875 613.683594 C 666.6875 613.132812 668.125 609.605469 669.886719 605.847656 C 671.648438 602.089844 673.148438 597.199219 673.226562 594.980469 C 673.300781 592.761719 674.152344 589.746094 675.113281 588.28125 C 676.078125 586.820312 678.035156 581.371094 679.464844 576.179688 C 683.265625 562.378906 683.273438 562.300781 681.4375 561.597656 C 679.699219 560.929688 679.144531 557.152344 680.785156 557.152344 C 681.320312 557.152344 681.5 556.46875 681.175781 555.628906 C 680.777344 554.585938 681.058594 554.28125 682.070312 554.671875 C 682.972656 555.015625 684.28125 554.140625 685.4375 552.414062 C 688.0625 548.496094 694.003906 532.589844 693.136719 531.808594 C 692.742188 531.457031 690.714844 530.625 688.628906 529.957031 C 683.941406 528.460938 684.695312 526.582031 689.613281 527.503906 L 693.207031 528.175781 L 692.507812 524.453125 C 691.621094 519.75 692.886719 506.027344 694.035156 507.882812 C 695.59375 510.402344 696.703125 507.339844 698.46875 495.652344 C 699.429688 489.285156 700.648438 482.9375 701.179688 481.539062 C 701.953125 479.511719 701.761719 478.695312 700.234375 477.457031 C 698.5625 476.105469 698.414062 475.074219 699.027344 469.132812 C 699.414062 465.402344 700.214844 461.769531 700.804688 461.058594 C 702.519531 458.996094 703.609375 427.4375 702.03125 425.539062 C 700.308594 423.464844 701.210938 414.457031 703.378906 412.0625 C 705.609375 409.597656 705.476562 404.367188 702.910156 393.878906 C 701.160156 386.730469 700.882812 383.355469 701.371094 375.082031 C 701.878906 366.410156 699.820312 341.785156 698.46875 340.4375 C 698.28125 340.246094 697.355469 341.609375 696.414062 343.464844 C 695.472656 345.320312 694.125 347.515625 693.417969 348.347656 C 692.375 349.574219 692.394531 351.582031 693.519531 358.941406 C 694.28125 363.933594 694.859375 369.609375 694.804688 371.550781 C 694.75 373.492188 693.921875 369.632812 692.96875 362.976562 C 690.765625 347.617188 689.800781 337.171875 690.820312 339.769531 C 691.535156 341.582031 691.789062 341.433594 693.402344 338.253906 C 694.386719 336.316406 695.882812 333.941406 696.726562 332.980469 C 698.113281 331.398438 697.996094 330.152344 695.566406 320.417969 C 694.082031 314.472656 692.253906 308.90625 691.5 308.046875 C 690.746094 307.191406 689.550781 303.082031 688.84375 298.921875 C 688.136719 294.761719 686.90625 290.046875 686.109375 288.445312 C 684.945312 286.105469 684.898438 285.085938 685.886719 283.242188 C 686.921875 281.3125 686.601562 279.210938 683.898438 270.015625 C 682.125 264 680.285156 258.171875 679.804688 257.0625 L 678.933594 255.042969 L 678.859375 257.0625 C 678.816406 258.171875 677.832031 260.441406 676.667969 262.105469 C 675.5 263.773438 674.875 264.226562 675.28125 263.113281 C 675.679688 262.003906 675.984375 260.414062 675.957031 259.582031 C 675.925781 258.75 676.335938 256.027344 676.867188 253.53125 C 677.699219 249.617188 677.460938 248.015625 675.140625 241.929688 C 673.660156 238.046875 670.867188 230.445312 668.9375 225.035156 C 667.007812 219.625 665.113281 215.199219 664.726562 215.199219 C 664.339844 215.199219 663.402344 217.476562 662.644531 220.257812 C 660.59375 227.78125 659.40625 224.8125 661.144531 216.496094 C 661.96875 212.539062 662.355469 208.472656 662.003906 207.457031 C 660.933594 204.371094 653.207031 188.890625 649 181.40625 L 645.03125 174.347656 L 643.597656 181.800781 C 642.273438 188.683594 642.066406 189.070312 640.929688 186.84375 C 640.25 185.519531 638.902344 180.800781 637.929688 176.363281 C 636.960938 171.925781 634.496094 164.417969 632.453125 159.679688 C 625.71875 144.042969 621.503906 137.542969 612.378906 128.695312 C 607.652344 124.113281 603.632812 120.519531 603.441406 120.707031 C 603.253906 120.898438 603.78125 125.605469 604.613281 131.175781 C 605.449219 136.746094 606.207031 143.277344 606.300781 145.695312 C 606.464844 149.839844 607.109375 150.746094 617.699219 161.710938 C 628.914062 173.332031 639.234375 186.636719 643.390625 194.835938 C 644.601562 197.226562 647.097656 201.539062 648.933594 204.417969 C 652.96875 210.738281 656.085938 216.832031 657.03125 220.242188 C 657.417969 221.628906 655.839844 219.359375 653.527344 215.199219 C 639.457031 189.878906 627.558594 174.0625 609.605469 156.816406 C 595.980469 143.722656 588.753906 138.375 576.351562 132.1875 C 557.566406 122.820312 539.179688 119.125 522.21875 121.296875 C 487.167969 125.789062 453.976562 145.980469 428.367188 178.382812 C 416.546875 193.34375 402.027344 217.796875 394.796875 234.929688 C 387.136719 253.085938 376.296875 287.835938 371.53125 309.515625 C 369.878906 317.039062 366.714844 338.621094 364.953125 354.402344 C 363.144531 370.617188 363.1875 370.359375 363.035156 365.496094 C 362.757812 356.566406 369.003906 311.984375 371.9375 301.957031 C 373.703125 295.925781 373.351562 295.058594 368.679688 293.914062 C 366.320312 293.332031 361.089844 291.871094 357.054688 290.664062 C 352.363281 289.261719 349.367188 288.816406 348.75 289.4375 C 348.214844 289.972656 347.242188 294.023438 346.585938 298.449219 C 345.929688 302.871094 345.035156 306.894531 344.601562 307.390625 C 344.167969 307.886719 344.0625 307.324219 344.375 306.144531 C 344.683594 304.960938 344.585938 303.195312 344.15625 302.214844 C 343.730469 301.238281 343.496094 299.753906 343.636719 298.921875 C 343.777344 298.089844 343.527344 297.765625 343.085938 298.203125 C 342.644531 298.636719 342.339844 300.679688 342.410156 302.742188 C 342.519531 305.996094 342.429688 306.15625 341.703125 303.964844 C 341.246094 302.578125 340.828125 301.992188 340.773438 302.664062 C 340.714844 303.335938 338.855469 304.378906 336.632812 304.976562 C 334.414062 305.570312 332.597656 306.523438 332.597656 307.089844 C 332.597656 307.675781 330.75 307.984375 328.304688 307.804688 C 325.613281 307.613281 324.105469 307.042969 324.257812 306.273438 C 324.398438 305.539062 323.859375 305.292969 322.910156 305.65625 C 321.832031 306.070312 321.6875 306.488281 322.464844 306.96875 C 324.664062 308.328125 321.109375 309.828125 315.609375 309.867188 C 309.882812 309.90625 307.132812 311.269531 308.035156 313.621094 C 308.390625 314.554688 307.925781 315.058594 306.714844 315.046875 C 305.132812 315.035156 305.078125 314.878906 306.351562 314.054688 C 307.648438 313.21875 307.609375 313.074219 306.101562 313.058594 C 305.128906 313.050781 304.335938 313.5 304.335938 314.054688 C 304.335938 314.609375 303.566406 315.0625 302.628906 315.0625 C 301.140625 315.0625 301.171875 314.871094 302.878906 313.582031 C 305.644531 311.488281 303.371094 311.679688 300.179688 313.804688 C 298.730469 314.773438 295.550781 316.882812 293.113281 318.492188 C 290.679688 320.097656 288.355469 321.914062 287.949219 322.523438 C 287.410156 323.332031 287.203125 323.328125 287.191406 322.515625 C 287.160156 320.242188 318.789062 300.398438 320.628906 301.535156 C 321.328125 301.964844 321.535156 301.824219 321.136719 301.183594 C 320.355469 299.917969 323.582031 297.832031 336.480469 291.261719 C 345.601562 286.609375 346.050781 286.492188 350.105469 287.667969 C 361.273438 290.910156 373.339844 293.847656 373.757812 293.425781 C 374.015625 293.171875 375.3125 288.742188 376.640625 283.585938 C 379.960938 270.675781 386.421875 251.359375 391.628906 238.773438 L 395.980469 228.25 L 391.792969 226.125 C 389.488281 224.953125 384.230469 221.777344 380.101562 219.0625 L 372.597656 214.128906 L 370.75 218.953125 C 368.078125 225.917969 363.488281 241.117188 359.886719 254.9375 C 358.164062 261.539062 356.546875 267.28125 356.285156 267.699219 C 356.027344 268.121094 352.519531 269.457031 348.496094 270.667969 C 344.46875 271.882812 334.679688 276.195312 326.738281 280.25 L 312.300781 287.625 L 312.941406 277.890625 C 313.289062 272.539062 313.765625 267.558594 313.996094 266.828125 C 314.40625 265.53125 335.398438 255.179688 346.980469 250.566406 C 352.492188 248.367188 355.332031 245.535156 350.511719 247.042969 C 347.078125 248.117188 325.804688 257.421875 319.25 260.714844 C 315.546875 262.578125 311.910156 263.617188 309.105469 263.617188 C 301.40625 263.617188 295.5625 272.058594 299.925781 276.878906 C 301.394531 278.5 301.441406 279.707031 300.332031 288.0625 L 299.09375 297.429688 L 289.039062 303.976562 C 283.507812 307.578125 278.523438 310.398438 277.957031 310.246094 C 277.394531 310.09375 277.191406 310.386719 277.507812 310.894531 C 277.824219 311.40625 277.402344 312.085938 276.570312 312.402344 C 274.621094 313.152344 274.65625 312.214844 277.039062 300.65625 C 280.835938 282.214844 289.078125 251.988281 293.105469 241.742188 L 295.011719 236.886719 L 315.570312 228.582031 C 338.324219 219.390625 349.046875 215.824219 361.867188 213.1875 L 370.445312 211.421875 L 374.988281 213.851562 C 377.488281 215.1875 383.164062 218.53125 387.605469 221.285156 C 392.046875 224.035156 396.015625 226.289062 396.425781 226.292969 C 396.835938 226.292969 398.949219 222.777344 401.125 218.476562 C 424.285156 172.675781 459.265625 138.441406 496.835938 124.816406 C 520.5 116.230469 540.136719 115.257812 559.191406 121.710938 C 574.378906 126.855469 586.367188 133.265625 599.433594 143.230469 L 604.347656 146.976562 L 603.609375 142.609375 C 603.203125 140.203125 602.230469 136.703125 601.445312 134.828125 C 600.660156 132.953125 598.902344 127.914062 597.535156 123.628906 C 593.296875 110.320312 588.632812 104.980469 572.285156 94.722656 C 562.441406 88.550781 559.703125 87.644531 562.140625 91.378906 C 564.027344 94.273438 574.1875 117.039062 573.117188 115.972656 C 572.675781 115.535156 568.90625 108.550781 564.742188 100.457031 L 557.171875 85.734375 L 548.59375 80.832031 C 539.914062 75.871094 519.65625 68.671875 503.679688 64.867188 C 476.078125 58.292969 442.421875 55.707031 413.34375 57.925781 M 456.554688 75.675781 C 457.285156 75.96875 458.15625 75.933594 458.488281 75.597656 C 458.824219 75.261719 458.230469 75.023438 457.164062 75.066406 C 455.988281 75.117188 455.75 75.355469 456.554688 75.675781 M 463.558594 76.664062 C 464.253906 76.945312 465.386719 76.945312 466.082031 76.664062 C 466.773438 76.386719 466.207031 76.15625 464.820312 76.15625 C 463.429688 76.15625 462.863281 76.386719 463.558594 76.664062 M 473.398438 78.910156 C 485.550781 82.4375 489.054688 85.644531 495.316406 98.945312 C 497.472656 103.519531 499.414062 107.265625 499.636719 107.265625 C 499.855469 107.265625 499.332031 104.882812 498.464844 101.972656 C 495.199219 90.953125 490.40625 84.128906 483.996094 81.371094 C 478.675781 79.082031 471.632812 77.019531 469.359375 77.089844 C 468.25 77.121094 470.066406 77.941406 473.398438 78.910156 M 514.378906 88.6875 C 517.097656 93.40625 519.324219 97.550781 519.324219 97.894531 C 519.324219 99.121094 524.558594 107.414062 525.03125 106.941406 C 525.695312 106.28125 515.875 85.613281 513.5625 82.796875 C 509.339844 77.65625 509.757812 80.65625 514.378906 88.6875 M 536.121094 82.050781 C 536.964844 85.476562 546.453125 106.511719 547.722656 107.769531 C 548.28125 108.324219 547.765625 106.285156 546.574219 103.230469 C 543.644531 95.71875 535.34375 78.898438 536.121094 82.050781 M 395.742188 105.058594 C 394.109375 105.441406 403.886719 105.753906 417.464844 105.753906 L 442.15625 105.753906 L 447.265625 109.03125 C 451.910156 112.011719 452.90625 113.382812 458.226562 124.160156 C 464.769531 137.414062 466.957031 138.148438 461.332031 125.207031 C 454.917969 110.457031 454.589844 109.972656 449.175781 107.292969 C 444.308594 104.882812 443.335938 104.785156 421.417969 104.578125 C 408.929688 104.460938 397.375 104.675781 395.742188 105.058594 M 435.730469 123.492188 C 434.421875 125.582031 431.941406 125.183594 433.203125 123.085938 C 433.609375 122.40625 433.183594 122.488281 432.210938 123.277344 C 430.273438 124.847656 429.898438 125.914062 431.667969 124.824219 C 432.4375 124.347656 432.554688 124.550781 432.019531 125.421875 C 431.375 126.460938 430.941406 126.378906 429.949219 125.027344 C 429.113281 123.886719 427.90625 123.507812 426.320312 123.894531 C 425.011719 124.214844 421.898438 124.09375 419.398438 123.621094 C 416.902344 123.148438 410.769531 123.121094 405.773438 123.558594 C 400.777344 123.996094 394.871094 124.476562 392.652344 124.636719 C 390.429688 124.792969 388.015625 125.488281 387.28125 126.179688 C 386.546875 126.875 384.617188 127.441406 382.992188 127.441406 C 381.367188 127.441406 380.035156 127.925781 380.035156 128.515625 C 380.035156 129.109375 379.191406 129.328125 378.160156 129 C 377.074219 128.65625 375.742188 129.054688 375.007812 129.941406 C 373.875 131.304688 375.621094 131.476562 390.710938 131.476562 C 404.292969 131.476562 407.4375 131.726562 406.433594 132.738281 C 405.550781 133.621094 400.035156 134.09375 388.074219 134.316406 L 370.972656 134.632812 L 365.070312 141.882812 C 357.839844 150.761719 352.78125 157.734375 352.78125 158.816406 C 352.78125 159.265625 354.714844 158.941406 357.074219 158.101562 C 368.578125 154.003906 380.320312 152.273438 397.039062 152.214844 C 413.398438 152.15625 413.550781 152.132812 415.527344 149.632812 C 426.132812 136.214844 430.523438 129.957031 430.097656 128.855469 C 429.808594 128.101562 430.128906 127.75 430.84375 128.023438 C 432.113281 128.507812 438.316406 122.808594 437.453125 121.949219 C 437.199219 121.691406 436.421875 122.386719 435.730469 123.492188 M 360.984375 133.976562 C 358.695312 136.460938 356.820312 138.820312 356.820312 139.222656 C 356.820312 139.621094 357.210938 139.515625 357.6875 138.992188 C 362.90625 133.226562 366.050781 129.457031 365.644531 129.457031 C 365.375 129.457031 363.277344 131.492188 360.984375 133.976562 M 348.84375 134.753906 C 347.457031 137.015625 347.457031 137.015625 349.613281 135.101562 C 351.925781 133.046875 352.222656 132.484375 351.007812 132.484375 C 350.585938 132.484375 349.613281 133.503906 348.84375 134.753906 M 350.324219 137.234375 C 349.777344 138.671875 349.890625 138.785156 350.890625 137.796875 C 351.578125 137.113281 351.890625 136.296875 351.578125 135.988281 C 351.269531 135.679688 350.703125 136.238281 350.324219 137.234375 M 344.140625 141.328125 C 338.214844 148.550781 328.558594 164.65625 328.558594 167.316406 C 328.558594 167.640625 331.765625 166.179688 335.683594 164.066406 C 342.632812 160.316406 347.070312 155.601562 354.332031 144.242188 L 356.167969 141.375 L 350.328125 142.101562 L 344.492188 142.832031 L 346.230469 140.179688 C 348.703125 136.40625 347.75 136.929688 344.140625 141.328125 M 352.25 138.582031 C 351.921875 139.113281 350.660156 139.582031 349.441406 139.625 C 348.226562 139.667969 347.8125 139.9375 348.527344 140.226562 C 349.238281 140.511719 350.601562 140.402344 351.554688 139.988281 C 352.507812 139.570312 353.855469 139.320312 354.550781 139.429688 C 356.285156 139.710938 356.136719 138.878906 354.328125 138.183594 C 353.515625 137.871094 352.578125 138.050781 352.25 138.582031 M 318.933594 140 C 310.558594 151.753906 296.261719 176.757812 296.261719 179.660156 C 296.261719 180.25 300.910156 178.300781 306.59375 175.324219 L 316.925781 169.921875 L 323.078125 158.898438 C 328.609375 148.988281 329.085938 147.6875 327.808594 145.980469 C 326.414062 144.128906 326.390625 144.128906 326.714844 145.996094 C 326.898438 147.050781 326.476562 148.109375 325.785156 148.351562 C 325.089844 148.59375 324.523438 148.085938 324.523438 147.226562 C 324.523438 146.347656 323.9375 145.882812 323.195312 146.171875 C 322.46875 146.449219 321.042969 145.761719 320.027344 144.644531 C 318.507812 142.960938 318.410156 142.339844 319.480469 141.054688 C 320.191406 140.199219 320.578125 139.300781 320.339844 139.066406 C 320.101562 138.828125 319.46875 139.25 318.933594 140 M 523.863281 140.578125 C 521.089844 141.074219 516.09375 142.402344 512.761719 143.527344 C 509.433594 144.652344 507.84375 145.34375 509.230469 145.0625 C 537.0625 139.417969 557.015625 141.285156 578.371094 151.542969 C 601.164062 162.484375 617.738281 177.558594 634.796875 202.855469 C 653.441406 230.507812 666.789062 265.203125 676.707031 311.824219 C 685.050781 351.023438 687.800781 372.808594 688.835938 407.863281 L 689.566406 432.578125 L 689.722656 413.410156 C 689.976562 382.4375 686.742188 353.425781 678.652344 314.054688 C 672.023438 281.800781 659.933594 244.816406 648.878906 222.972656 C 628.28125 182.28125 594.792969 151.386719 561.0625 141.957031 C 554.191406 140.035156 531.558594 139.195312 523.863281 140.578125 M 316.425781 145.117188 C 315.722656 145.964844 315.441406 146.945312 315.796875 147.304688 C 316.15625 147.660156 316.445312 147.375 316.445312 146.667969 C 316.445312 145.960938 317.105469 145.632812 317.910156 145.941406 C 318.886719 146.320312 319.1875 146.019531 318.8125 145.042969 C 318.113281 143.222656 317.996094 143.226562 316.425781 145.117188 M 326.820312 148.875 C 325.308594 150.832031 324.355469 152.660156 324.851562 152.660156 C 325.097656 152.660156 326.042969 151.523438 326.953125 150.136719 C 328.652344 147.542969 328.558594 146.632812 326.820312 148.875 M 290.667969 160.796875 C 290.300781 161.386719 290.21875 162.089844 290.484375 162.351562 C 290.746094 162.617188 291.234375 162.132812 291.5625 161.277344 C 292.242188 159.5 291.664062 159.1875 290.667969 160.796875 M 282.128906 162.746094 C 281.53125 163.859375 281.464844 164.761719 281.976562 164.761719 C 282.484375 164.761719 283.140625 163.855469 283.429688 162.746094 C 283.722656 161.636719 283.789062 160.730469 283.585938 160.730469 C 283.378906 160.730469 282.722656 161.636719 282.128906 162.746094 M 272.644531 162.578125 C 272.359375 163.039062 272.765625 163.417969 273.550781 163.417969 C 274.335938 163.417969 274.742188 163.039062 274.457031 162.578125 C 274.167969 162.113281 273.761719 161.738281 273.550781 161.738281 C 273.339844 161.738281 272.929688 162.117188 272.644531 162.578125 M 636.410156 163 C 636.417969 165.078125 640.714844 171.433594 641.1875 170.0625 C 641.425781 169.367188 640.636719 167.210938 639.433594 165.269531 C 637.105469 161.503906 636.402344 160.976562 636.410156 163 M 285.171875 164.171875 C 285.824219 164.824219 286.507812 164.824219 287.160156 164.171875 C 287.816406 163.519531 287.472656 163.179688 286.167969 163.179688 C 284.859375 163.179688 284.519531 163.519531 285.171875 164.171875 M 275.246094 166.277344 C 272.855469 169.316406 271.664062 169.535156 272.539062 166.78125 C 273.738281 163.007812 271.210938 164.746094 268.058594 169.863281 C 266.332031 172.667969 265.230469 175.460938 265.605469 176.070312 C 265.984375 176.679688 265.832031 176.894531 265.273438 176.550781 C 264.09375 175.820312 253.730469 194.492188 248.296875 207.128906 C 243.335938 218.667969 234.75 242.289062 230.21875 256.851562 C 228.183594 263.394531 226.238281 269.476562 225.898438 270.367188 C 225.519531 271.347656 227.625 270.40625 231.246094 267.964844 C 234.527344 265.753906 239.308594 262.730469 241.871094 261.242188 C 244.429688 259.757812 248.941406 255.765625 251.898438 252.371094 L 257.269531 246.199219 L 251.0625 246.648438 C 246.945312 246.945312 244.167969 247.722656 242.804688 248.957031 C 241.65625 249.992188 240.746094 250.300781 240.746094 249.65625 C 240.746094 247.941406 251.359375 218.355469 256.410156 205.996094 C 261.433594 193.703125 271.628906 173.101562 275.441406 167.539062 C 278.371094 163.257812 278.25 162.460938 275.246094 166.277344 M 383.0625 164.4375 C 360.253906 168.101562 345.183594 172.285156 319.367188 182.109375 C 303.660156 188.085938 303.605469 188.117188 301.386719 192.558594 C 299.042969 197.246094 287.96875 228.429688 288.46875 228.929688 C 288.628906 229.089844 293.625 226.726562 299.574219 223.675781 L 310.394531 218.128906 L 308.804688 215.058594 C 307.722656 212.96875 307.421875 210.765625 307.867188 208.140625 C 308.746094 202.9375 310.496094 200.824219 313.921875 200.824219 C 317.917969 200.824219 319.738281 203.625 319.171875 208.894531 C 318.921875 211.253906 318.820312 213.183594 318.953125 213.183594 C 319.082031 213.183594 323.917969 211.429688 329.699219 209.285156 C 344.582031 203.765625 360.328125 199.460938 378.1875 196.019531 C 384.683594 194.765625 384.28125 195.21875 393.289062 179.066406 C 396.480469 173.339844 398.839844 167.996094 398.53125 167.1875 C 397.34375 164.097656 391.566406 163.066406 383.0625 164.4375 M 269.066406 169.703125 C 268.316406 171.097656 268.414062 171.921875 269.429688 172.761719 C 270.519531 173.667969 270.785156 173.53125 270.667969 172.113281 C 270.582031 171.039062 271.101562 170.4375 271.953125 170.621094 C 273.140625 170.875 273.160156 170.65625 272.082031 169.359375 C 270.433594 167.375 270.304688 167.386719 269.066406 169.703125 M 275.230469 174.734375 C 271.355469 181.03125 261.976562 200.660156 256.898438 213.117188 C 252.523438 223.839844 245.792969 242.234375 245.792969 243.472656 C 245.792969 244.453125 256.789062 241.988281 257.8125 240.78125 C 258.214844 240.304688 259.140625 237.417969 259.863281 234.363281 C 262.207031 224.480469 270.039062 203.929688 276.773438 189.980469 C 280.390625 182.492188 283.992188 174.886719 284.773438 173.085938 L 286.195312 169.808594 L 282.230469 169.808594 C 278.570312 169.808594 278.03125 170.1875 275.230469 174.734375 M 513.265625 191.519531 C 507.183594 193.023438 499.382812 196.15625 491.554688 200.242188 C 475.570312 208.589844 455.539062 229.253906 442.835938 250.503906 C 435.53125 262.71875 424.714844 286.414062 425.902344 287.601562 C 426.210938 287.910156 426.480469 287.519531 426.5 286.734375 C 426.519531 285.949219 427.132812 286.378906 427.859375 287.691406 C 428.996094 289.738281 429.277344 289.839844 429.832031 288.398438 C 430.1875 287.46875 430.078125 286.960938 429.585938 287.265625 C 428.683594 287.824219 427.460938 285.609375 427.488281 283.457031 C 427.496094 282.78125 427.921875 282.921875 428.484375 283.792969 C 429.019531 284.625 429.476562 284.851562 429.492188 284.296875 C 429.507812 283.742188 429.964844 283.96875 430.5 284.800781 C 431.316406 286.066406 431.484375 285.992188 431.496094 284.363281 C 431.511719 282.246094 440.921875 263.105469 443.222656 260.511719 C 443.996094 259.636719 444.632812 258.582031 444.632812 258.167969 C 444.632812 257.167969 452.398438 245.207031 457.148438 238.882812 C 463.671875 230.207031 478.140625 216.238281 485.933594 211.105469 C 513.972656 192.621094 545.484375 192.390625 573.101562 210.46875 C 585.058594 218.296875 600.589844 233.871094 609.003906 246.46875 C 616.980469 258.414062 630.070312 284.929688 634.859375 298.84375 C 643.859375 324.996094 649.164062 353.425781 651.429688 387.6875 C 651.890625 394.625 652.335938 397.800781 652.425781 394.75 C 652.597656 388.863281 654.53125 383.660156 654.558594 389.011719 C 654.566406 390.640625 655.003906 391.578125 655.582031 391.21875 C 656.171875 390.855469 656.640625 391.988281 656.710938 393.933594 C 656.777344 395.882812 657.027344 396.488281 657.3125 395.382812 C 658.066406 392.449219 655.722656 364.480469 653.453125 349.359375 C 643.820312 285.125 615.152344 230.550781 577.269531 204.335938 C 570.726562 199.808594 557.433594 193.925781 549.394531 192 C 539.492188 189.628906 521.875 189.394531 513.265625 191.519531 M 293.738281 193.625 C 292.070312 194.46875 289.617188 196.53125 288.285156 198.210938 C 285.863281 201.257812 271.027344 235.65625 271.027344 238.222656 C 271.027344 239.429688 273.875 238.066406 282.953125 232.503906 C 284.289062 231.683594 297.5625 194.355469 297.042969 192.882812 C 296.890625 192.445312 295.402344 192.78125 293.738281 193.625 M 658.691406 205.699219 C 658.738281 206.875 658.980469 207.113281 659.300781 206.308594 C 659.59375 205.582031 659.554688 204.710938 659.222656 204.375 C 658.886719 204.042969 658.648438 204.636719 658.691406 205.699219 M 521.847656 208.5 C 519.070312 209.195312 516.800781 210.320312 516.800781 211.003906 C 516.800781 211.6875 516.199219 212.617188 515.464844 213.070312 C 514.695312 213.546875 518.519531 214.136719 524.550781 214.472656 C 536.390625 215.132812 543.015625 216.867188 553.136719 221.957031 C 563.90625 227.371094 571.613281 233.300781 581.625 243.875 C 602.746094 266.175781 617.929688 295.976562 626.640625 332.210938 C 630.714844 349.164062 631.773438 355.140625 633.859375 373.007812 C 634.699219 380.1875 635.84375 386.519531 636.398438 387.078125 C 637.082031 387.757812 637.421875 387.609375 637.429688 386.628906 C 637.445312 385.433594 637.601562 385.414062 638.308594 386.527344 C 638.914062 387.484375 639.375 386.804688 639.851562 384.257812 C 640.542969 380.589844 641.828125 379.574219 642.851562 381.890625 C 644.046875 384.59375 642.128906 365.253906 639.828125 351.375 C 635.214844 323.585938 628.355469 301.246094 617.410156 278.375 C 606.992188 256.609375 596.738281 242.597656 580.820312 228.371094 C 569.972656 218.679688 559.113281 212.046875 550.109375 209.617188 C 542.136719 207.464844 528.199219 206.914062 521.847656 208.5 M 657.683594 209.734375 C 657.730469 210.910156 657.96875 211.148438 658.292969 210.34375 C 658.582031 209.617188 658.546875 208.746094 658.210938 208.410156 C 657.875 208.078125 657.636719 208.671875 657.683594 209.734375 M 228.636719 219.738281 C 228.636719 220.570312 228.152344 221.25 227.566406 221.25 C 226.976562 221.25 226.792969 220.777344 227.152344 220.191406 C 227.511719 219.609375 224.601562 220.832031 220.683594 222.910156 C 213.773438 226.570312 213.570312 226.789062 213.988281 230.046875 C 214.265625 232.21875 213.152344 237.054688 210.835938 243.71875 C 205.488281 259.113281 201.320312 269.660156 200.550781 269.753906 C 196.433594 270.261719 195.488281 270.222656 195.894531 269.566406 C 196.15625 269.144531 195.90625 268.515625 195.339844 268.164062 C 194.777344 267.816406 193.871094 268.695312 193.332031 270.113281 C 192.792969 271.535156 191.980469 272.695312 191.53125 272.695312 C 191.082031 272.695312 189.859375 274.171875 188.808594 275.972656 C 187.761719 277.777344 186.300781 279.617188 185.5625 280.058594 C 184.828125 280.503906 184.226562 281.410156 184.226562 282.078125 C 184.230469 283.59375 179.988281 292.144531 178.800781 293.003906 C 178.320312 293.359375 178.140625 294.265625 178.410156 295.023438 C 178.679688 295.78125 178.300781 297.589844 177.566406 299.046875 C 176.832031 300.503906 176.550781 302.015625 176.945312 302.40625 C 177.339844 302.800781 176.777344 303.765625 175.703125 304.554688 C 174.625 305.339844 174.171875 305.980469 174.695312 305.976562 C 175.214844 305.976562 177.007812 304.839844 178.671875 303.457031 C 180.886719 301.621094 181.15625 301.101562 179.683594 301.539062 C 178.097656 302.011719 177.976562 301.917969 179.128906 301.101562 C 179.933594 300.53125 180.902344 300.253906 181.277344 300.484375 C 182.542969 301.265625 207.933594 283.65625 209.320312 281.03125 C 210.078125 279.601562 211.785156 274.375 213.113281 269.414062 C 214.441406 264.453125 218.039062 253.0625 221.109375 244.101562 C 224.179688 235.140625 226.753906 227.242188 226.824219 226.546875 C 226.894531 225.851562 227.277344 225.285156 227.675781 225.285156 C 228.074219 225.285156 228.628906 224.492188 228.90625 223.519531 C 229.1875 222.550781 229.742188 220.960938 230.144531 219.992188 C 230.578125 218.933594 230.421875 218.226562 229.753906 218.226562 C 229.136719 218.226562 228.632812 218.90625 228.632812 219.738281 M 225.605469 223.269531 C 224.695312 223.855469 224.570312 224.253906 225.292969 224.261719 C 225.957031 224.269531 226.777344 223.824219 227.121094 223.269531 C 227.894531 222.015625 227.546875 222.015625 225.605469 223.269531 M 657.667969 223.445312 C 657.632812 223.820312 659.914062 230.175781 662.738281 237.566406 C 665.5625 244.960938 669.414062 255.320312 671.292969 260.589844 C 673.175781 265.863281 674.726562 269.410156 674.738281 268.476562 C 674.785156 264.921875 657.945312 220.507812 657.667969 223.445312 M 220.152344 225.019531 C 219.742188 225.429688 218.683594 225.769531 217.800781 225.777344 C 216.917969 225.785156 216.074219 226.371094 215.929688 227.078125 C 215.78125 227.785156 215.894531 227.898438 216.175781 227.328125 C 217.054688 225.5625 218.511719 226.195312 217.867188 228.058594 C 217.347656 229.574219 217.472656 229.554688 218.757812 227.90625 C 219.78125 226.59375 220.476562 226.351562 220.964844 227.140625 C 221.492188 227.992188 222.027344 227.964844 223.023438 227.042969 C 224.007812 226.128906 224.0625 225.589844 223.222656 225.050781 C 221.753906 224.101562 221.078125 224.097656 220.152344 225.019531 M 215.007812 230.328125 C 215.351562 230.886719 215.832031 231.339844 216.078125 231.339844 C 216.324219 231.339844 216.523438 230.886719 216.523438 230.328125 C 216.523438 229.773438 216.042969 229.320312 215.453125 229.320312 C 214.867188 229.320312 214.664062 229.773438 215.007812 230.328125 M 273.167969 249.050781 C 270.183594 250.40625 267.179688 251.511719 266.496094 251.511719 C 264.0625 251.511719 257.171875 273.847656 252.929688 295.484375 C 250.339844 308.683594 246.589844 334.351562 247.167969 334.925781 C 247.414062 335.171875 249.929688 333.710938 252.761719 331.679688 C 257.675781 328.152344 259.148438 326.15625 256.835938 326.15625 C 256.25 326.15625 255.972656 326.496094 256.226562 326.914062 C 256.480469 327.332031 255.675781 328.429688 254.4375 329.355469 C 252.667969 330.679688 252.183594 330.742188 252.183594 329.652344 C 252.183594 328.890625 252.542969 328.484375 252.976562 328.753906 C 253.410156 329.019531 254.273438 328.296875 254.886719 327.144531 C 255.613281 325.792969 256.632812 325.25 257.777344 325.613281 C 260.496094 326.476562 263.960938 321.839844 263.96875 317.324219 C 263.984375 310.066406 274.398438 262.371094 278.503906 250.757812 C 279.339844 248.398438 279.699219 246.496094 279.308594 246.527344 C 278.917969 246.558594 276.152344 247.695312 273.167969 249.050781 M 452.390625 262.859375 C 438.59375 281.429688 423.25 321.257812 415.964844 357.429688 C 410.875 382.683594 409.300781 399 409.316406 426.449219 C 409.332031 458.535156 413.113281 485.484375 420.980469 509.542969 C 424.859375 521.40625 434.820312 542.835938 439.230469 548.808594 C 448.996094 562.035156 457.949219 570.265625 462.5625 570.265625 C 466.234375 570.265625 482.886719 553.1875 490.464844 541.648438 C 505.265625 519.105469 514.605469 491.113281 518.996094 456.121094 C 521.414062 436.828125 521.40625 391.667969 518.976562 375.082031 C 514.191406 342.382812 504.703125 316.433594 488.90625 292.828125 C 479.71875 279.097656 460.519531 259.582031 456.199219 259.582031 C 455.445312 259.582031 453.734375 261.058594 452.390625 262.859375 M 240.675781 272.671875 C 238.691406 273.71875 236.511719 275.246094 235.832031 276.070312 C 235.148438 276.890625 233.074219 285.429688 231.222656 295.050781 C 227.859375 312.5 226.085938 324.429688 227.425781 320.609375 C 228.253906 318.234375 230.652344 317.441406 230.652344 319.542969 C 230.652344 320.339844 231.125 321.285156 231.703125 321.644531 C 232.382812 322.066406 232.539062 321.289062 232.144531 319.433594 C 231.628906 317.003906 231.710938 316.851562 232.691406 318.402344 C 233.328125 319.40625 233.582031 320.921875 233.257812 321.769531 C 232.929688 322.621094 232.972656 323.808594 233.34375 324.410156 C 233.71875 325.015625 235.519531 317.3125 237.347656 307.292969 C 239.179688 297.273438 241.78125 284.9375 243.128906 279.878906 C 244.480469 274.816406 245.292969 270.699219 244.933594 270.722656 C 244.574219 270.75 242.65625 271.625 240.675781 272.671875 M 674.839844 271.261719 C 674.796875 271.859375 676.078125 277.078125 677.691406 282.859375 C 680.125 291.585938 682.226562 300.65625 686.214844 319.601562 C 686.605469 321.460938 686.648438 321.449219 686.753906 319.429688 C 686.953125 315.730469 682.082031 292.921875 678.820312 282.277344 C 675.234375 270.570312 674.949219 269.78125 674.839844 271.261719 M 226.859375 283.140625 C 221.183594 289.296875 220.714844 290.425781 217.964844 304.75 C 215.148438 319.394531 215.082031 320.253906 216.957031 317.78125 C 218.003906 316.402344 218.484375 316.28125 218.945312 317.277344 C 219.425781 318.320312 219.675781 318.328125 220.140625 317.324219 C 221.0625 315.351562 222.570312 316.90625 222.65625 319.914062 C 222.695312 321.40625 223.820312 316.460938 225.148438 308.921875 C 226.480469 301.386719 228.433594 291.511719 229.488281 286.984375 C 230.542969 282.453125 231.292969 278.75 231.15625 278.75 C 231.023438 278.75 229.085938 280.726562 226.859375 283.140625 M 428.988281 281.773438 C 428.644531 282.328125 428.84375 282.78125 429.433594 282.78125 C 430.019531 282.78125 430.5 282.328125 430.5 281.773438 C 430.5 281.21875 430.300781 280.765625 430.058594 280.765625 C 429.8125 280.765625 429.332031 281.21875 428.988281 281.773438 M 201.382812 302.003906 C 199.996094 303.117188 196.472656 305.648438 193.558594 307.628906 C 187.402344 311.808594 186.710938 312.613281 189.273438 312.613281 C 190.300781 312.613281 191.0625 312.164062 190.964844 311.613281 C 190.867188 311.066406 191.691406 310.59375 192.800781 310.570312 C 193.910156 310.542969 194.875 309.957031 194.945312 309.261719 C 195.207031 306.699219 195.359375 306.644531 196.914062 308.566406 C 198.457031 310.464844 198.488281 310.457031 197.996094 308.160156 C 197.511719 305.921875 197.585938 305.886719 199.347656 307.480469 C 201.085938 309.054688 201.238281 309.042969 201.730469 307.320312 C 202.019531 306.308594 202.007812 307.636719 201.703125 310.269531 C 200.96875 316.65625 201.945312 316.371094 203.355469 309.785156 C 203.980469 306.878906 204.75 303.476562 205.066406 302.21875 C 205.769531 299.410156 204.6875 299.347656 201.382812 302.003906 M 312.578125 305.859375 C 311.503906 306.539062 311.574219 306.84375 312.921875 307.359375 C 314.917969 308.125 316.726562 307.25 315.898438 305.914062 C 315.1875 304.761719 314.332031 304.746094 312.578125 305.859375 M 688.34375 309.078125 C 687.980469 309.667969 687.894531 310.371094 688.160156 310.632812 C 688.425781 310.898438 688.910156 310.414062 689.238281 309.558594 C 689.921875 307.78125 689.339844 307.46875 688.34375 309.078125 M 305.910156 310.554688 C 304.832031 311.367188 304.433594 312.035156 305.027344 312.035156 C 305.621094 312.035156 306.671875 311.355469 307.363281 310.523438 C 308.933594 308.628906 308.441406 308.640625 305.910156 310.554688 M 343.777344 311.613281 C 343.828125 312.789062 344.066406 313.03125 344.386719 312.226562 C 344.679688 311.496094 344.644531 310.625 344.308594 310.292969 C 343.972656 309.957031 343.734375 310.550781 343.777344 311.613281 M 198.515625 313.042969 C 198.515625 314.429688 198.742188 315 199.023438 314.304688 C 199.304688 313.613281 199.304688 312.476562 199.023438 311.785156 C 198.742188 311.089844 198.515625 311.65625 198.515625 313.042969 M 184.5625 314.304688 C 183.375 316.207031 183.261719 318.179688 184.378906 317.488281 C 184.921875 317.152344 185.113281 316.625 184.804688 316.316406 C 184.496094 316.003906 184.746094 315.144531 185.367188 314.398438 C 185.984375 313.652344 186.234375 313.042969 185.921875 313.042969 C 185.609375 313.042969 185 313.613281 184.5625 314.304688 M 191.3125 314.53125 C 190.328125 315.714844 190.402344 316.339844 191.695312 317.628906 C 192.582031 318.515625 193.308594 318.78125 193.308594 318.21875 C 193.308594 317.660156 192.847656 316.914062 192.28125 316.566406 C 190.78125 315.636719 192.25 313.816406 193.96875 314.476562 C 194.785156 314.789062 195.160156 314.597656 194.816406 314.042969 C 193.945312 312.636719 192.746094 312.800781 191.3125 314.53125 M 217.613281 320.695312 C 217.660156 321.867188 217.898438 322.109375 218.222656 321.304688 C 218.511719 320.574219 218.476562 319.703125 218.140625 319.371094 C 217.808594 319.035156 217.570312 319.628906 217.613281 320.695312 M 228.714844 322.710938 C 228.761719 323.886719 229.003906 324.125 229.324219 323.320312 C 229.617188 322.59375 229.578125 321.722656 229.246094 321.386719 C 228.910156 321.050781 228.671875 321.648438 228.714844 322.710938 M 686.953125 324.726562 C 687 325.902344 687.242188 326.144531 687.5625 325.339844 C 687.855469 324.609375 687.816406 323.738281 687.484375 323.40625 C 687.148438 323.070312 686.910156 323.664062 686.953125 324.730469 M 688.042969 330.191406 C 688.042969 331.578125 688.269531 332.148438 688.550781 331.453125 C 688.832031 330.761719 688.832031 329.625 688.550781 328.933594 C 688.269531 328.238281 688.042969 328.804688 688.042969 330.191406 M 248.691406 332.964844 C 247.4375 334.566406 247.472656 334.601562 249.074219 333.347656 C 250.753906 332.03125 251.289062 331.203125 250.457031 331.203125 C 250.25 331.203125 249.453125 331.996094 248.691406 332.964844 M 688.972656 334.816406 C 689.019531 335.992188 689.257812 336.230469 689.582031 335.425781 C 689.871094 334.699219 689.835938 333.828125 689.5 333.492188 C 689.167969 333.15625 688.929688 333.753906 688.972656 334.816406 M 345.464844 356.078125 C 346.160156 356.359375 347.296875 356.359375 347.988281 356.078125 C 348.683594 355.800781 348.113281 355.570312 346.726562 355.570312 C 345.339844 355.570312 344.773438 355.800781 345.464844 356.078125 M 351.535156 357.132812 C 352.789062 357.375 354.605469 357.363281 355.570312 357.113281 C 356.535156 356.859375 355.507812 356.664062 353.289062 356.671875 C 351.066406 356.683594 350.277344 356.890625 351.535156 357.132812 M 361.519531 382.804688 C 360.714844 397.742188 360.832031 435.285156 361.722656 447.707031 C 362.078125 452.699219 362.371094 437.378906 362.371094 413.664062 C 362.371094 389.945312 362.328125 370.542969 362.273438 370.542969 C 362.222656 370.542969 361.878906 376.058594 361.519531 382.804688 M 695.292969 383.148438 C 695.296875 387.589844 695.472656 389.277344 695.6875 386.90625 C 695.898438 384.535156 695.898438 380.902344 695.679688 378.835938 C 695.464844 376.769531 695.289062 378.710938 695.292969 383.148438 M 640.601562 386.679688 C 640.601562 388.066406 640.832031 388.636719 641.113281 387.941406 C 641.390625 387.25 641.390625 386.113281 641.113281 385.417969 C 640.832031 384.726562 640.601562 385.292969 640.601562 386.679688 M 371.117188 409.882812 C 370.570312 461.324219 386.214844 534.191406 407.15625 577.753906 C 420.519531 605.546875 433.933594 625.113281 452.199219 643.453125 C 494.683594 686.109375 548.339844 693.742188 594.464844 663.695312 C 613.945312 651.003906 635.34375 625.589844 648.554688 599.453125 C 652.90625 590.839844 658.753906 577.136719 658.28125 576.660156 C 658.070312 576.449219 656.203125 579.988281 654.132812 584.523438 C 646.207031 601.847656 634.21875 619.160156 620.453125 633.15625 C 602.371094 651.535156 586.902344 660.691406 564.640625 666.175781 C 550.941406 669.554688 529.957031 669.394531 516.296875 665.8125 C 489.019531 658.664062 468.875 646.289062 446.667969 623.042969 C 427.441406 602.917969 414.839844 583.277344 402.429688 554.082031 C 393.898438 534.011719 384.699219 499.421875 379.109375 466.367188 C 374.386719 438.449219 373.074219 428.09375 372.027344 410.386719 L 371.25 397.273438 Z M 696.371094 419.464844 C 696.367188 428.894531 696.519531 432.890625 696.707031 428.339844 C 696.894531 423.789062 696.894531 416.074219 696.707031 411.191406 C 696.523438 406.308594 696.371094 410.03125 696.371094 419.464844 M 349.25 430.054688 L 345.214844 430.777344 L 348.746094 430.800781 C 350.6875 430.816406 353.640625 430.480469 355.304688 430.054688 C 357.980469 429.375 358.039062 429.289062 355.8125 429.308594 C 354.421875 429.320312 351.472656 429.65625 349.25 430.054688 M 338.398438 431.730469 C 339.09375 432.011719 340.230469 432.011719 340.921875 431.730469 C 341.617188 431.453125 341.050781 431.222656 339.660156 431.222656 C 338.273438 431.222656 337.707031 431.453125 338.398438 431.730469 M 688.234375 441.152344 C 688.234375 445.867188 688.410156 447.796875 688.621094 445.4375 C 688.832031 443.082031 688.832031 439.222656 688.621094 436.863281 C 688.410156 434.507812 688.234375 436.433594 688.234375 441.152344 M 694.671875 449.601562 C 694.242188 456.746094 693.195312 467.578125 692.347656 473.671875 C 691.496094 479.765625 690.988281 484.941406 691.222656 485.175781 C 692.671875 486.621094 696.46875 450.066406 695.796875 441.152344 C 695.605469 438.65625 695.101562 442.457031 694.671875 449.601562 M 687.160156 455.777344 C 687.167969 458.550781 687.367188 459.566406 687.597656 458.03125 C 687.828125 456.5 687.824219 454.230469 687.582031 452.988281 C 687.34375 451.75 687.15625 453.003906 687.160156 455.777344 M 363.164062 461.828125 C 363.171875 464.605469 363.367188 465.617188 363.601562 464.085938 C 363.832031 462.550781 363.824219 460.28125 363.585938 459.042969 C 363.347656 457.800781 363.15625 459.054688 363.164062 461.828125 M 686.097656 465.359375 C 686.097656 467.300781 686.304688 468.097656 686.558594 467.125 C 686.8125 466.15625 686.8125 464.566406 686.558594 463.59375 C 686.304688 462.625 686.097656 463.417969 686.097656 465.359375 M 364.175781 471.917969 C 364.183594 474.691406 364.378906 475.707031 364.609375 474.171875 C 364.84375 472.640625 364.835938 470.371094 364.597656 469.128906 C 364.355469 467.886719 364.167969 469.144531 364.175781 471.917969 M 684.933594 474.019531 C 684.980469 475.191406 685.222656 475.433594 685.542969 474.628906 C 685.835938 473.898438 685.800781 473.03125 685.464844 472.695312 C 685.128906 472.359375 684.890625 472.953125 684.933594 474.019531 M 365.128906 480.492188 C 365.128906 482.433594 365.335938 483.226562 365.589844 482.257812 C 365.84375 481.285156 365.84375 479.695312 365.589844 478.726562 C 365.335938 477.753906 365.128906 478.550781 365.128906 480.492188 M 683.925781 481.078125 C 683.972656 482.253906 684.210938 482.492188 684.535156 481.6875 C 684.824219 480.960938 684.789062 480.089844 684.453125 479.753906 C 684.121094 479.421875 683.882812 480.015625 683.925781 481.078125 M 366.101562 488.054688 C 366.121094 489.722656 366.347656 490.28125 366.605469 489.296875 C 366.859375 488.316406 366.84375 486.953125 366.566406 486.273438 C 366.289062 485.589844 366.082031 486.390625 366.101562 488.054688 M 682.914062 487.132812 C 682.964844 488.304688 683.203125 488.546875 683.523438 487.742188 C 683.816406 487.011719 683.78125 486.144531 683.445312 485.808594 C 683.109375 485.472656 682.871094 486.066406 682.914062 487.132812 M 690.058594 488.5625 C 690.058594 489.949219 690.289062 490.515625 690.570312 489.820312 C 690.847656 489.128906 690.847656 487.992188 690.570312 487.300781 C 690.289062 486.605469 690.058594 487.171875 690.058594 488.5625 M 681.984375 492.59375 C 681.984375 493.984375 682.214844 494.550781 682.496094 493.855469 C 682.773438 493.164062 682.773438 492.027344 682.496094 491.335938 C 682.214844 490.640625 681.984375 491.207031 681.984375 492.59375 M 367 493.648438 C 366.902344 496.609375 371.625 521.851562 372.429688 522.65625 C 373.148438 523.371094 373.304688 524.402344 370.003906 506.71875 C 368.398438 498.117188 367.046875 492.238281 367 493.648438 M 688.972656 494.191406 C 689.019531 495.367188 689.257812 495.605469 689.582031 494.800781 C 689.871094 494.074219 689.835938 493.203125 689.5 492.867188 C 689.167969 492.535156 688.929688 493.128906 688.972656 494.191406 M 680.898438 498.226562 C 680.945312 499.402344 681.183594 499.640625 681.507812 498.835938 C 681.796875 498.109375 681.761719 497.238281 681.425781 496.902344 C 681.089844 496.570312 680.851562 497.164062 680.898438 498.226562 M 687.960938 500.246094 C 688.011719 501.421875 688.25 501.660156 688.570312 500.855469 C 688.863281 500.125 688.828125 499.257812 688.492188 498.921875 C 688.15625 498.585938 687.917969 499.179688 687.960938 500.246094 M 678.875 507.308594 C 678.148438 510.589844 675.332031 521.40625 672.617188 531.34375 C 669.90625 541.28125 667.855469 549.582031 668.066406 549.789062 C 668.941406 550.667969 681.152344 504.199219 680.535156 502.34375 C 680.351562 501.796875 679.605469 504.03125 678.875 507.308594 M 633.53125 522.414062 C 621.089844 559.789062 600.648438 591.3125 578.800781 606.832031 C 570.542969 612.699219 557.222656 619.109375 548.59375 621.371094 C 535.210938 624.875 515.34375 623.332031 500.398438 617.621094 C 492.296875 614.527344 490.964844 614.539062 497.070312 617.652344 C 512.472656 625.503906 533.03125 629.273438 547.097656 626.828125 C 567.890625 623.207031 590.214844 608.765625 604.574219 589.644531 C 617.050781 573.03125 631.296875 542.066406 636.460938 520.34375 C 639.648438 506.925781 638.390625 507.8125 633.53125 522.414062 M 684.933594 516.382812 C 684.980469 517.558594 685.222656 517.796875 685.542969 516.996094 C 685.835938 516.265625 685.800781 515.394531 685.464844 515.0625 C 685.128906 514.726562 684.890625 515.320312 684.933594 516.382812 M 683.925781 521.429688 C 683.972656 522.601562 684.210938 522.84375 684.535156 522.039062 C 684.824219 521.308594 684.789062 520.4375 684.453125 520.105469 C 684.121094 519.769531 683.882812 520.363281 683.925781 521.429688 M 373.050781 525.460938 C 373.097656 526.636719 373.335938 526.875 373.660156 526.074219 C 373.949219 525.34375 373.914062 524.472656 373.578125 524.140625 C 373.246094 523.804688 373.007812 524.398438 373.050781 525.460938 M 374.058594 529.496094 C 374.105469 530.671875 374.347656 530.910156 374.667969 530.109375 C 374.960938 529.378906 374.921875 528.507812 374.589844 528.175781 C 374.253906 527.839844 374.015625 528.433594 374.058594 529.496094 M 375.066406 533.53125 C 375.117188 534.707031 375.355469 534.945312 375.679688 534.144531 C 375.96875 533.414062 375.933594 532.542969 375.597656 532.210938 C 375.261719 531.875 375.023438 532.46875 375.066406 533.53125 M 376.078125 537.566406 C 376.125 538.742188 376.363281 538.980469 376.6875 538.175781 C 376.980469 537.449219 376.941406 536.578125 376.605469 536.242188 C 376.273438 535.910156 376.035156 536.503906 376.078125 537.566406 M 377.085938 541.601562 C 377.136719 542.777344 377.375 543.015625 377.695312 542.210938 C 377.988281 541.484375 377.953125 540.613281 377.617188 540.277344 C 377.28125 539.945312 377.042969 540.539062 377.085938 541.601562 M 675.851562 551.6875 C 675.898438 552.863281 676.136719 553.101562 676.460938 552.300781 C 676.75 551.570312 676.714844 550.699219 676.378906 550.367188 C 676.042969 550.03125 675.804688 550.625 675.851562 551.6875 M 666.304688 552.652344 C 665.960938 553.554688 665.707031 554.824219 665.742188 555.472656 C 665.777344 556.117188 666.238281 555.5625 666.773438 554.234375 C 667.304688 552.90625 667.558594 551.636719 667.335938 551.414062 C 667.117188 551.195312 666.652344 551.75 666.304688 552.652344 M 662.296875 564.367188 C 660.824219 568.351562 659.789062 571.777344 659.996094 571.984375 C 660.199219 572.191406 661.574219 569.101562 663.050781 565.121094 C 664.527344 561.140625 665.566406 557.714844 665.355469 557.503906 C 665.144531 557.292969 663.765625 560.382812 662.296875 564.367188 M 669.824219 570.054688 C 667.390625 577.105469 663.460938 587.300781 661.09375 592.710938 C 658.726562 598.121094 657 602.546875 657.253906 602.546875 C 658.765625 602.546875 675.265625 560.125 674.550781 558.070312 C 674.386719 557.609375 672.261719 563 669.828125 570.054688 M 653.710938 608.347656 C 652.609375 610.917969 652.632812 610.976562 654.054688 609.160156 C 654.894531 608.085938 655.582031 606.835938 655.582031 606.386719 C 655.582031 604.855469 654.898438 605.570312 653.710938 608.347656 M 646.5 621.710938 C 645.90625 622.820312 645.648438 623.726562 645.925781 623.726562 C 646.203125 623.726562 646.914062 622.820312 647.507812 621.710938 C 648.101562 620.601562 648.363281 619.695312 648.085938 619.695312 C 647.804688 619.695312 647.09375 620.601562 646.5 621.710938 M 420.484375 633.808594 C 422.820312 637.136719 425.421875 640.425781 426.265625 641.125 C 427.109375 641.820312 425.402344 639.097656 422.464844 635.078125 C 416.042969 626.265625 414.5 625.28125 420.484375 633.808594 M 631.863281 643.652344 C 612.011719 670.539062 585.21875 689.953125 558.378906 696.886719 C 553.273438 698.203125 550.015625 699.304688 551.136719 699.332031 C 554.222656 699.40625 566.355469 695.835938 574.585938 692.433594 C 585.1875 688.050781 603.621094 675.488281 614.160156 665.464844 C 621.441406 658.539062 635.519531 641.308594 639.816406 634.066406 C 642.027344 630.335938 638.96875 634.019531 631.863281 643.652344 M 431.539062 647.933594 C 437.769531 655.585938 448.441406 666.046875 455.433594 671.355469 C 463.273438 677.300781 467.847656 680.453125 467.847656 679.898438 C 467.847656 679.648438 464.050781 676.6875 459.414062 673.320312 C 454.773438 669.949219 445.589844 661.613281 439 654.792969 C 432.410156 647.972656 429.054688 644.882812 431.539062 647.933594 M 470.875 682.152344 C 472.261719 683.335938 477.03125 686.082031 481.472656 688.253906 C 496.632812 695.671875 512.179688 699.75 528.910156 700.703125 C 535.433594 701.074219 536.714844 700.980469 533.453125 700.375 C 530.957031 699.910156 526.960938 699.5 524.578125 699.457031 C 511.4375 699.230469 485.613281 690.777344 471.882812 682.203125 C 468.410156 680.03125 468.390625 680.03125 470.875 682.152344 M 541.796875 700.105469 C 543.328125 700.335938 545.601562 700.332031 546.839844 700.09375 C 548.082031 699.851562 546.828125 699.664062 544.050781 699.671875 C 541.277344 699.675781 540.261719 699.875 541.796875 700.105469 "/></g></svg>